<?xml version="1.0" encoding="UTF-8" standalone="no"?>
<!-- Created with Inkscape (http://www.inkscape.org/) -->

<svg
   xmlns:dc="http://purl.org/dc/elements/1.1/"
   xmlns:cc="http://creativecommons.org/ns#"
   xmlns:rdf="http://www.w3.org/1999/02/22-rdf-syntax-ns#"
   xmlns:svg="http://www.w3.org/2000/svg"
   xmlns="http://www.w3.org/2000/svg"
   xmlns:sodipodi="http://sodipodi.sourceforge.net/DTD/sodipodi-0.dtd"
   xmlns:inkscape="http://www.inkscape.org/namespaces/inkscape"
   width="2133.3328"
   height="1212.6504"
   viewBox="0 0 564.44428 320.84708"
   version="1.1"
   id="svg8"
   inkscape:version="0.92.3 (unknown)"
   sodipodi:docname="mountains-1.svg">
  <defs
     id="defs2">
    <clipPath
       clipPathUnits="userSpaceOnUse"
       id="clipPath6956">
      <rect
         style="opacity:1;fill:#007800;fill-opacity:1;fill-rule:evenodd;stroke:none;stroke-width:0.26458332;stroke-opacity:1"
         id="rect6958"
         width="671.51251"
         height="286.27917"
         x="677.92566"
         y="51.121803" />
    </clipPath>
    <clipPath
       clipPathUnits="userSpaceOnUse"
       id="clipPath6956-6">
      <rect
         style="opacity:1;fill:#007800;fill-opacity:1;fill-rule:evenodd;stroke:none;stroke-width:0.26458332;stroke-opacity:1"
         id="rect6958-7"
         width="671.51251"
         height="286.27917"
         x="677.92566"
         y="51.121803" />
    </clipPath>
    <clipPath
       clipPathUnits="userSpaceOnUse"
       id="clipPath6994">
      <rect
         style="opacity:1;fill:#007800;fill-opacity:1;fill-rule:evenodd;stroke:none;stroke-width:0.26458332;stroke-opacity:1"
         id="rect6996"
         width="636.05835"
         height="241.3"
         x="713.95306"
         y="54.037388" />
    </clipPath>
  </defs>
  <sodipodi:namedview
     id="base"
     pagecolor="#ffffff"
     bordercolor="#666666"
     borderopacity="1.0"
     inkscape:pageopacity="0.0"
     inkscape:pageshadow="2"
     inkscape:zoom="0.35355339"
     inkscape:cx="905.44641"
     inkscape:cy="812.22029"
     inkscape:document-units="mm"
     inkscape:current-layer="layer2"
     showgrid="false"
     units="px"
     inkscape:window-width="1859"
     inkscape:window-height="1176"
     inkscape:window-x="1981"
     inkscape:window-y="24"
     inkscape:window-maximized="1"
     showguides="false" />
  <metadata
     id="metadata5">
    <rdf:RDF>
      <cc:Work
         rdf:about="">
        <dc:format>image/svg+xml</dc:format>
        <dc:type
           rdf:resource="http://purl.org/dc/dcmitype/StillImage" />
        <dc:title />
      </cc:Work>
    </rdf:RDF>
  </metadata>
  <g
     inkscape:groupmode="layer"
     id="layer2"
     inkscape:label="layer1"
     style="display:inline"
     transform="translate(-779.22715,-669.88054)">
    <g
       id="g6998"
       transform="translate(80.073948,22.45064)">
      <path
         style="fill:#0f1a36;stroke-width:0.35277778;fill-opacity:1"
         d="m 699.1532,752.90604 c 0,-51.84511 0.0841,-63.5 0.4583,-63.5 0.56724,0 1.09609,-1.46835 1.82465,-5.06615 0.58118,-2.86998 1.36859,-4.81163 1.95131,-4.81163 0.52714,0 1.30245,1.41335 1.93522,3.52778 0.31935,1.06715 0.9019,2.64886 1.29454,3.51491 0.81605,1.79995 1.12801,1.55941 1.47819,-1.13974 0.25648,-1.97697 1.10869,-3.78628 1.78338,-3.78628 0.59603,0 1.15294,0.66646 1.32314,1.58345 0.0716,0.38582 0.44588,0.76155 0.83171,0.83494 1.44539,0.27493 2.5546,1.45906 3.34397,3.56983 0.8016,2.14345 1.26088,2.58366 1.64667,1.57829 0.15651,-0.40786 0.49086,-0.48874 1.31184,-0.31734 1.55394,0.32442 1.84532,0.70044 3.00039,3.87186 1.16022,3.18553 1.94166,3.76197 2.28267,1.68383 0.1209,-0.73677 0.59753,-1.80824 1.05918,-2.38103 0.82346,-1.02172 0.85683,-1.03 1.7618,-0.43704 0.50734,0.33242 1.21858,1.18164 1.58053,1.88715 l 0.65809,1.28275 0.67124,-1.37487 c 0.47026,-0.96322 0.9353,-1.41054 1.55318,-1.494 0.48507,-0.0655 1.23747,-0.44881 1.672,-0.85177 0.75646,-0.7015 0.81924,-0.70624 1.47642,-0.1115 0.3775,0.34164 1.03102,1.35438 1.45227,2.25055 0.83789,1.78254 0.84387,1.78066 2.22645,-0.70077 l 0.65353,-1.17294 0.956,1.14214 c 0.69549,0.83091 1.06178,1.03635 1.3442,0.75393 0.79125,-0.79125 1.78632,0.81606 2.7574,4.45393 0.71065,2.66222 1.36323,4.40972 1.64675,4.40972 0.46307,0 0.9157,-1.21659 1.49369,-4.01481 0.8085,-3.91423 1.79184,-5.64911 2.76938,-4.88596 0.75654,0.59062 2.13942,0.76837 2.65419,0.34115 0.70076,-0.58158 2.814,-0.59599 3.29001,-0.0224 0.31499,0.37952 0.5024,0.38835 0.91822,0.0433 0.28735,-0.23848 1.47509,-0.44524 2.63941,-0.45947 2.41957,-0.0296 2.63599,0.16479 3.63649,3.26562 0.42311,1.31136 0.77983,1.85208 1.22184,1.85208 0.40514,0 0.93591,0.65009 1.51215,1.85208 0.89251,1.86171 1.0214,1.85002 1.4526,-0.13178 0.11076,-0.50904 0.50575,-1.30141 0.87776,-1.76082 0.66664,-0.82327 0.68702,-0.82567 1.41559,-0.16632 0.40656,0.36793 0.74425,0.8428 0.75042,1.05527 0.0217,0.74722 0.99187,1.6968 1.44652,1.41581 0.37859,-0.23398 1.49395,-0.30725 2.73462,-0.17964 0.37226,0.0383 1.70861,3.26352 2.02313,4.88276 0.23458,1.20766 0.8346,1.58216 0.84781,0.52917 0.004,-0.33955 0.30431,-1.2704 0.66678,-2.06856 0.61524,-1.3548 0.75459,-1.4512 2.09777,-1.4512 0.95564,0 1.63855,0.22076 2.03374,0.65745 0.32724,0.36159 0.81415,0.65745 1.08201,0.65745 0.55581,0 1.55444,2.17043 2.19125,4.7625 0.54195,2.2059 1.26799,3.35139 2.12421,3.35139 0.65262,0 0.88722,-0.64482 1.60952,-4.42397 0.11275,-0.58992 0.51374,-1.58027 0.8911,-2.20079 0.63787,-1.04889 0.75485,-1.09919 1.66391,-0.71545 1.60708,0.67839 2.06933,1.3701 3.07694,4.6044 0.52861,1.69677 1.09307,3.16659 1.25436,3.26628 0.16129,0.0997 0.40467,-0.33608 0.54084,-0.96837 0.13617,-0.63228 0.47066,-1.58617 0.74332,-2.11974 0.46799,-0.91584 1.96544,-3.04733 2.91515,-0.97014 h 2.41941 l 0.72243,1.85208 c 0.39734,1.01865 0.82408,2.21158 0.94832,2.65096 0.29271,1.03524 0.8784,0.66928 0.88839,-0.55511 0.004,-0.52213 0.31983,-1.63704 0.70128,-2.4776 0.66013,-1.45468 0.74894,-1.51649 1.84433,-1.28365 1.28465,0.27307 2.38553,1.09794 2.38553,1.78745 0,0.76385 0.71582,0.94815 1.37292,0.35348 0.92904,-0.84077 1.30455,-0.69934 1.99252,0.75045 0.72019,1.51768 1.32883,2.20286 1.98922,2.23939 0.25639,0.0142 0.94242,0.32993 1.5245,0.70167 2.08977,1.3346 1.99154,1.3531 3.23186,-0.6087 0.37606,-0.59481 0.53775,-0.51056 1.97237,1.02777 0.8595,0.92164 1.70704,1.67327 1.88342,1.6703 0.58573,-0.01 1.10457,-0.51426 1.35525,-1.31752 0.13624,-0.43656 0.44592,-0.79375 0.68818,-0.79375 0.45839,0 1.98142,3.29382 1.98142,4.28515 0,0.91373 0.9966,1.48605 2.71367,1.5584 1.26372,0.0533 1.7594,0.26531 2.35399,1.00707 0.65831,0.82126 0.88648,0.89836 1.81151,0.61214 0.58208,-0.18011 1.73302,-0.51053 2.55764,-0.73427 1.51154,-0.41013 1.97194,-1.17997 0.94204,-1.57518 -0.43114,-0.16544 -0.49769,-0.47338 -0.29403,-1.36065 0.14478,-0.63076 0.23775,-1.51392 0.20661,-1.96258 -0.0312,-0.44866 0.24756,-1.40116 0.61933,-2.11667 0.37177,-0.7155 1.04807,-2.24104 1.5029,-3.39008 0.45482,-1.14905 0.99233,-2.14431 1.19446,-2.21168 0.39167,-0.13056 1.9141,3.20894 1.9141,4.19865 0,0.32435 0.1487,0.68163 0.33044,0.79395 0.58512,0.36163 1.43345,2.38525 1.43345,3.4194 0,1.39755 0.73028,1.30074 3.42326,-0.4538 1.78871,-1.1654 2.9813,-1.61849 5.94356,-2.25811 2.03821,-0.4401 3.93137,-0.98735 4.20702,-1.21612 0.27565,-0.22877 0.69213,-0.99856 0.92551,-1.71064 0.23338,-0.71209 0.71973,-1.98718 1.08079,-2.83354 0.8142,-1.90861 1.3083,-1.62947 2.24479,1.26818 0.71455,2.21095 1.945,3.82774 2.69371,3.53949 0.49681,-0.19127 1.06473,-1.94166 1.70995,-5.2702 0.4221,-2.17749 1.06765,-3.07307 1.67556,-2.32451 0.19891,0.24493 0.63897,1.44182 0.97793,2.65976 0.33895,1.21793 0.75289,2.29886 0.91987,2.40207 0.16698,0.1032 0.30361,0.64515 0.30361,1.20433 0,1.17772 0.42435,1.54791 1.41426,1.23372 0.843,-0.26756 0.92437,-1.07306 0.13884,-1.37449 -0.47096,-0.18073 -0.52343,-0.57817 -0.31937,-2.41899 0.13429,-1.21151 0.47939,-2.57284 0.76687,-3.02518 0.28749,-0.45234 0.89084,-1.80172 1.34079,-2.99861 0.88166,-2.34526 1.37575,-2.66388 2.05016,-1.32209 0.23611,0.46975 0.62186,0.91759 0.85724,0.9952 0.42279,0.13941 0.57396,-0.29161 0.96731,-2.75813 0.21692,-1.3602 1.0499,-2.7608 1.42113,-2.38956 0.45861,0.45861 2.22416,6.08123 2.05115,6.53212 -0.47994,1.25068 2.54694,0.92188 3.06689,-0.33315 0.17861,-0.43114 0.87076,-2.12773 1.5381,-3.7702 0.66734,-1.64247 1.37713,-3.0409 1.57732,-3.10763 0.36788,-0.12263 1.82653,2.79157 1.82653,3.64917 0,0.70723 1.4147,2.95103 2.0877,3.31121 1.06104,0.56785 1.58742,-0.14994 3.22241,-4.39422 0.52321,-1.3582 1.16261,-2.46945 1.42088,-2.46945 0.25828,0 0.80305,0.9525 1.2106,2.11667 1.46479,4.18411 2.26349,5.11528 4.38762,5.11528 1.30365,0 2.00988,-1.00351 3.41228,-4.84865 0.51346,-1.40783 1.11317,-2.55969 1.33268,-2.55969 0.368,0 1.62305,2.95702 1.62305,3.82404 0,0.47652 1.66518,2.94998 2.22607,3.3066 0.67602,0.42982 3.58507,0.31702 4.21067,-0.16328 0.3159,-0.24253 1.0049,-1.55222 1.5311,-2.91041 0.5262,-1.3582 1.08348,-2.61191 1.23839,-2.78604 0.27293,-0.30677 2.08266,3.32506 2.08266,4.17955 0,0.72144 1.58698,1.95788 2.51294,1.95788 1.41968,0 2.00929,-0.70441 3.24809,-3.88056 0.64326,-1.64924 1.31674,-2.97506 1.49662,-2.94627 0.17989,0.0288 0.72394,1.1904 1.20901,2.58137 1.22286,3.50662 1.95278,4.24546 4.19423,4.24546 1.85452,0 2.50546,-0.51987 2.51089,-2.00528 0.003,-0.82103 2.67006,-7.29339 3.05876,-7.42296 0.16141,-0.0538 0.66886,0.8946 1.12767,2.10757 1.71665,4.53836 2.64651,6.22588 3.44095,6.24462 0.92802,0.0219 1.69417,-0.84209 1.40801,-1.58782 -0.11739,-0.3059 0.0886,-1.14136 0.45763,-1.85658 0.66567,-1.28995 0.96701,-1.99464 1.80386,-4.21837 0.23887,-0.63476 0.56572,-1.23532 0.72633,-1.33458 0.29918,-0.1849 1.97213,3.33039 1.81615,3.81618 -0.17754,0.55294 1.71289,3.08214 2.3023,3.08025 1.26042,-0.004 3.26112,-0.75519 3.5595,-1.33638 0.51604,-1.00515 0.72474,-3.57922 0.31094,-3.83496 -0.22272,-0.13765 -0.0465,-0.35776 0.42658,-0.53275 0.6178,-0.22854 0.75731,-0.48278 0.59723,-1.08843 -0.14819,-0.56065 0.0141,-0.95972 0.55875,-1.37358 0.5482,-0.4166 0.77289,-0.97464 0.78601,-1.9522 l 0.0184,-1.36884 1.13159,0.71747 c 0.62238,0.39461 1.13832,1.00317 1.14653,1.35235 0.008,0.34918 0.26803,1.12431 0.57737,1.72251 0.46244,0.89425 0.47864,1.13941 0.0911,1.3789 -0.37534,0.23197 -0.38211,0.38045 -0.0333,0.7293 0.24091,0.24091 0.43802,0.27898 0.43802,0.0846 0,-0.19438 0.58862,-0.3701 1.30803,-0.39049 1.65854,-0.047 2.45152,0.81533 1.6088,1.74952 -0.529,0.58642 -0.582,0.58197 -1.05141,-0.0882 -0.27188,-0.38816 -0.72344,-0.70574 -1.00348,-0.70574 -0.61091,0 -0.60794,-0.0358 -0.11435,1.38007 0.24974,0.71641 0.56967,1.0655 0.87065,0.95 0.2617,-0.10043 0.56965,-0.0308 0.68433,0.15478 0.11468,0.18555 1.37278,0.33737 2.79578,0.33737 2.80833,0 3.01553,-0.14733 3.01553,-2.14412 0,-1.10208 1.27677,-5.15267 1.8539,-5.88158 0.57699,-0.72871 0.79251,-0.52009 1.27555,1.23473 0.2537,0.92163 0.5215,1.87413 0.59511,2.11666 0.0736,0.24254 0.39092,0.44098 0.7051,0.44098 0.46999,0 0.52944,0.24749 0.33536,1.39623 -0.40068,2.3716 -0.0615,2.8371 2.06737,2.8371 2.11701,0 2.68941,-0.40753 2.70046,-1.92264 0.004,-0.59178 0.31828,-1.47285 0.69771,-1.95792 0.37942,-0.48507 0.69339,-1.1333 0.69771,-1.4405 0.004,-0.30722 0.12691,-0.6774 0.27243,-0.82263 0.14552,-0.14523 0.42485,-0.83365 0.62073,-1.52983 0.19588,-0.69617 0.52258,-1.32124 0.72601,-1.38905 0.20342,-0.0678 0.73273,0.79259 1.17624,1.912 0.44351,1.11941 1.18837,2.77115 1.65524,3.67053 0.46687,0.89939 0.84886,2.21405 0.84886,2.92149 0,2.60431 2.00734,1.87422 2.37456,-0.86366 0.23262,-1.7343 2.57094,-7.45824 3.12183,-7.64187 0.20094,-0.067 0.73025,0.7941 1.17624,1.91351 0.44599,1.11941 1.21288,2.86096 1.7042,3.87012 0.84746,1.74067 0.90848,2.47669 0.38751,4.67388 -0.0897,0.37826 0.61386,0.67382 2.70094,1.13467 1.55222,0.34275 2.96295,0.5816 3.13495,0.53079 0.172,-0.0508 0.35115,-0.72016 0.3981,-1.48744 0.12455,-2.03632 1.14435,-6.51194 1.61215,-7.07557 0.6275,-0.75618 0.9005,-0.35092 1.8668,2.77187 1.529,4.941 1.4068,5.55447 -1.1062,5.55447 -2.66866,0 -1.2456,0.75912 1.5465,0.82497 l 2.4158,0.057 0.4134,-2.46945 c 0.4191,-2.50342 2.6055,-8.35264 3.1957,-8.54937 0.3155,-0.10515 1.8686,3.23806 1.8686,4.02226 0,0.21898 0.395,1.08904 0.8777,1.93346 0.9364,1.63804 1.1156,3.09338 0.5182,4.20958 -0.4635,0.86594 -0.2777,0.93897 3.3666,1.32366 3.7041,0.39102 3.959,0.30212 4.2297,-1.47484 0.3073,-2.01769 0.9057,-3.45711 1.3726,-3.30149 0.2147,0.0716 0.7983,1.22849 1.2969,2.57094 1.5957,4.29641 1.2588,4.04043 6.6665,5.0653 2.7205,0.51559 2.6261,0.59705 4.3282,-3.73597 0.6359,-1.61861 1.2677,-2.9435 1.4042,-2.9442 0.3411,-0.002 1.6922,3.11468 1.6922,3.90331 0,0.35194 0.1611,0.73949 0.3581,0.86122 0.4703,0.29065 1.4058,2.54734 1.4058,3.39117 0,0.93543 1.2511,2.07358 2.2794,2.07358 0.9466,0 1.3324,-0.94406 1.9587,-4.79214 0.3293,-2.02348 0.8799,-3.32175 1.4086,-3.32175 0.1816,0 0.665,1.10242 1.0743,2.44982 0.6859,2.25817 1.499,3.55884 1.9456,3.11222 0.1006,-0.10062 0.2737,-0.79793 0.3846,-1.54958 0.2099,-1.42284 2.4469,-7.47622 2.9709,-8.03937 0.2889,-0.31051 1.7499,2.55193 1.8752,3.67414 0.033,0.29104 0.4908,1.35732 1.0184,2.36952 1.407,2.69928 1.2048,4.14701 -0.7253,5.19446 -1.3344,0.72417 -0.1266,0.72654 1.6047,0.003 0.7197,-0.30072 1.9638,-0.6936 2.7645,-0.87305 0.8008,-0.17945 1.9134,-0.50175 2.4725,-0.71622 l 1.0165,-0.38994 -1.0058,-0.53084 c -0.8271,-0.43651 -0.971,-0.69793 -0.8098,-1.47104 0.1077,-0.51711 0.3785,-1.81332 0.6015,-2.88048 0.4711,-2.2533 1.2522,-4.23333 1.67,-4.23333 0.3759,0 2.1899,5.36256 2.1899,6.47377 0,1.33628 0.7352,1.71772 2.5184,1.30657 0.8462,-0.19512 2.5704,-0.36107 3.8316,-0.36879 2.5017,-0.0153 3.3514,-0.34874 3.3514,-1.31521 0,-0.34555 0.4221,-1.66016 0.938,-2.92134 0.5159,-1.26118 1.1305,-2.80899 1.3657,-3.43958 0.2353,-0.63059 0.5598,-1.14653 0.7212,-1.14653 0.3126,0 1.7361,2.99497 1.7398,3.66082 0,0.21786 0.5303,1.428 1.1756,2.68918 1.1235,2.19568 1.2395,2.30318 2.7318,2.53149 2.6161,0.40025 5.5,0.32662 5.8851,-0.15024 0.1958,-0.24254 0.4645,-1.15535 0.597,-2.02847 0.3658,-2.41024 0.901,-3.88056 1.4126,-3.88056 0.2668,0 0.8869,1.29914 1.4734,3.08681 l 1.0127,3.0868 4.1437,0.0994 c 3.7983,0.0911 5.0958,-0.1877 3.5801,-0.76933 -0.4719,-0.18107 -0.5229,-0.57465 -0.3134,-2.41899 0.1376,-1.2115 0.4571,-2.59961 0.7099,-3.08468 0.2528,-0.48507 0.8154,-1.83444 1.2503,-2.99861 0.4349,-1.16417 0.9163,-2.25913 1.0699,-2.43326 0.3172,-0.35967 2.1716,3.58739 1.8954,4.03433 -0.099,0.15975 0,0.39829 0.2082,0.53009 0.5057,0.31248 1.7405,3.20134 1.7405,4.0717 0,0.99245 0.8688,0.83654 3.1358,-0.56273 2.0675,-1.27616 6.3789,-2.50636 11.6808,-3.33296 3.7635,-0.58675 3.8676,-0.63879 2.8838,-1.44136 -0.7478,-0.61008 -0.7991,-0.84958 -0.58,-2.70782 0.1322,-1.1212 0.4617,-2.39015 0.7322,-2.81989 0.2705,-0.42973 0.4918,-0.94096 0.4918,-1.13607 0,-0.58108 1.7632,-4.2567 2.0388,-4.25018 0.1399,0.003 0.629,0.91613 1.0871,2.02848 0.4581,1.11234 1.2121,2.75831 1.6757,3.65769 1.2209,2.36867 1.128,3.90972 -0.3037,5.03805 l -1.1465,0.90361 3.2699,0.004 3.2699,0.004 -0.2306,-0.91882 c -0.2133,-0.85001 0.061,-2.60929 0.9998,-6.41041 0.4121,-1.6688 0.9013,-2.18796 1.3636,-1.44722 0.4311,0.69074 1.8868,5.28746 1.9415,6.13061 0.1303,2.00992 0.065,1.94211 1.8213,1.9022 0.9217,-0.0209 2.6903,-0.21938 3.9304,-0.44097 l 2.2547,-0.40289 0.1296,-2.62143 c 0.085,-1.72092 0.3176,-2.82915 0.6769,-3.22612 0.3009,-0.33258 0.9265,-1.69026 1.3901,-3.01706 0.4637,-1.3268 0.9776,-2.45721 1.142,-2.51203 0.2737,-0.0912 1.6316,3.14691 1.664,3.9683 0.01,0.19403 0.4503,1.02431 0.9836,1.84508 0.9946,1.53055 1.3374,4.05964 0.6112,4.50848 -0.9181,0.56739 1.7805,-1.80234 3.56,0.87839 h 3.5127 l 0.5107,-1.14653 c 0.2809,-0.63059 0.6794,-2.01965 0.8856,-3.08681 0.5959,-3.08452 1.4394,-3.70712 1.9392,-1.43144 0.3225,1.4684 1.0986,2.04172 2.001,1.47816 0.9218,-0.57563 1.4514,-0.12823 2.0711,1.74961 0.4948,1.4991 1.0583,1.98455 1.7834,1.53639 0.2292,-0.14167 0.9533,-0.29016 1.6092,-0.32998 1.4986,-0.091 1.5012,-0.094 1.8726,-2.1644 0.3516,-1.9596 2.4902,-7.36286 2.9987,-7.57612 0.1854,-0.0778 0.6651,0.81112 1.066,1.97528 0.4008,1.16417 0.8842,2.17553 1.074,2.24747 0.1898,0.0719 0.6626,-0.47248 1.0507,-1.20981 0.9413,-1.78856 1.4892,-1.88814 2.1174,-0.38477 0.3065,0.73349 0.775,1.25357 1.1415,1.26705 1.4009,0.0515 2.4073,0.21545 2.7737,0.45181 0.2134,0.13771 0.7402,1.40666 1.1705,2.81988 1.2162,3.99379 1.4658,4.50976 2.1816,4.50976 0.4289,0 0.7297,-0.33586 0.8687,-0.97014 0.1171,-0.53357 0.4989,-2.00201 0.8485,-3.26319 0.3496,-1.26118 0.8133,-2.94891 1.0303,-3.75051 0.2171,-0.8016 0.6387,-1.66004 0.9371,-1.90765 0.4586,-0.38059 0.7637,-0.21991 1.9737,1.03939 1.3057,1.35876 1.4838,1.44213 2.0284,0.94924 0.3284,-0.29719 0.9873,-0.51654 1.4642,-0.48745 2.2886,0.1396 2.7888,-0.0544 3.3009,-1.28015 0.6867,-1.64326 1.7718,-2.6641 2.6014,-2.44716 0.5027,0.13145 0.7904,-0.0947 1.1139,-0.87578 0.389,-0.9392 0.5898,-1.04698 1.8573,-0.99717 1.2817,0.0504 1.4663,0.17703 1.8816,1.29057 0.9672,2.59423 1.9838,5.89567 2.3898,7.76111 0.3455,1.58756 0.5665,1.96078 1.216,2.05301 0.5621,0.0798 0.8069,-0.0746 0.8388,-0.52916 0.073,-1.03771 0.2466,-1.92498 0.8171,-4.16968 0.2959,-1.16417 0.5481,-2.51354 0.5604,-2.99861 0.031,-1.23198 1.128,-3.35139 1.734,-3.35139 0.2777,0 0.8349,0.82269 1.2404,1.83169 0.405,1.00743 0.8354,1.93068 0.9563,2.05167 0.121,0.12098 0.5827,-0.42547 1.0261,-1.21433 0.5955,-1.05957 1.0426,-1.44607 1.7113,-1.47933 1.7278,-0.0859 2.3498,-0.20645 3.0785,-0.59643 0.4029,-0.21563 0.8333,-0.29127 0.9565,-0.16808 0.4233,0.42329 2.8683,0.343 3.8125,-0.1252 0.5199,-0.25775 1.042,-0.77354 1.1603,-1.14621 0.1182,-0.37266 0.4371,-0.86188 0.7085,-1.08716 0.3967,-0.32926 0.61,-0.17982 1.0872,0.76189 0.3266,0.64432 0.846,1.45894 1.1544,1.81028 0.5289,0.60253 0.6054,0.53746 1.3486,-1.14653 0.8778,-1.98892 1.3551,-2.20998 1.9504,-0.90337 0.4584,1.00615 0.7365,1.08833 1.3167,0.38919 0.2249,-0.27101 0.7086,-0.41439 1.0748,-0.31861 0.4759,0.12446 0.8199,-0.12372 1.2059,-0.87026 0.4612,-0.89193 0.745,-1.04439 1.9441,-1.04439 1.2053,0 1.4621,0.1399 1.8134,0.98805 0.3421,0.82612 0.5988,0.97592 1.5657,0.91406 1.448,-0.0926 2.3041,-0.78119 2.3041,-1.85316 0,-0.45472 0.2675,-1.38779 0.5945,-2.07347 0.5861,-1.22913 1.2701,-1.58709 1.7009,-0.89013 0.5448,0.88153 2.7502,7.41006 3.0674,9.08025 0.4019,2.11607 0.8203,2.36667 1.178,0.70555 0.3975,-1.84585 1.1754,-3.0868 1.9349,-3.0868 0.3831,0 0.6971,-0.11907 0.6978,-0.26459 0,-0.14552 0.3275,-0.79952 0.7261,-1.45334 l 0.7247,-1.18877 0.796,0.7478 c 0.4378,0.41128 0.9786,0.74779 1.2018,0.74779 0.2232,0 0.5917,0.35718 0.8188,0.79375 0.2271,0.43656 0.4633,0.85233 0.5248,0.92394 0.1502,0.17492 1.069,-0.75904 1.1113,-1.12973 0.3558,-3.11288 0.4452,10.29084 0.4452,66.7338 V 968.27698 H 981.3754 699.1532 Z m 350.6243,-43.36144 c 0.38,-0.24067 0.2433,-0.44053 -0.5999,-0.87655 -0.6007,-0.31063 -1.2588,-0.56479 -1.4625,-0.56479 -0.4074,0 -0.5094,1.15439 -0.1351,1.5287 0.333,0.33296 1.6141,0.28203 2.1975,-0.0874 z m 60.7597,-11.22474 c -1.3483,-0.16492 -1.3393,0.0389 -0.2377,-5.36321 0.8651,-4.24217 1.3436,-4.23595 2.7989,0.0364 1.1789,3.46077 1.2172,5.07087 0.1277,5.36284 -0.4366,0.11699 -0.9525,0.18948 -1.1465,0.16108 -0.1941,-0.0284 -0.8881,-0.11711 -1.5424,-0.19713 z m -143.85627,-2.96388 c 0.46682,-0.27134 0.76167,-0.2683 1.0407,0.0107 0.28392,0.28393 0.10758,0.38643 -0.65137,0.37861 -0.91232,-0.009 -0.96034,-0.0574 -0.38933,-0.38933 z m -14.58608,-0.32632 c 0,-0.20548 0.15875,-0.27548 0.35278,-0.15557 0.19402,0.11992 0.35277,0.28804 0.35277,0.3736 0,0.0856 -0.15875,0.15557 -0.35277,0.15557 -0.19403,0 -0.35278,-0.16812 -0.35278,-0.3736 z m 10.12834,-4.21251 c 0.10148,-0.38806 0.30988,-0.70556 0.46311,-0.70556 0.15323,0 0.19558,0.3175 0.0941,0.70556 -0.10148,0.38806 -0.30988,0.70556 -0.46311,0.70556 -0.15324,0 -0.19558,-0.3175 -0.0941,-0.70556 z m -3.07279,-2.62501 c 0,-0.27959 0.15875,-0.60646 0.35278,-0.72638 0.19403,-0.11992 0.35278,0.10884 0.35278,0.50835 0,0.3995 -0.15875,0.72637 -0.35278,0.72637 -0.19403,0 -0.35278,-0.22875 -0.35278,-0.50834 z"
         id="path7004"
         inkscape:connector-curvature="0"
         sodipodi:nodetypes="sscscccsccccccsccccccscccccscscscccccsccccccccccscscssccscccscscccssccccscccssccccccccccscsccscccsccccsccccsccscccscscsscscssssccssccssccscccccccscccccccccccsccsscccsscccscscccsccscsccscccccccsccccsccccccsccscsscsccccccscccccccssccsscscccccscccccsscccscscccscccccccccccccccccccccscccscccccccccccccscsccccsccccccccccsccccccccccccccccsccsccccsccccscccscccsccscccccccccccccccscsssssssssssss" />
    </g>
  </g>
</svg>
