<?xml version="1.0" encoding="UTF-8" standalone="no"?>
<!-- Created with Inkscape (http://www.inkscape.org/) -->

<svg
   xmlns:dc="http://purl.org/dc/elements/1.1/"
   xmlns:cc="http://creativecommons.org/ns#"
   xmlns:rdf="http://www.w3.org/1999/02/22-rdf-syntax-ns#"
   xmlns:svg="http://www.w3.org/2000/svg"
   xmlns="http://www.w3.org/2000/svg"
   xmlns:sodipodi="http://sodipodi.sourceforge.net/DTD/sodipodi-0.dtd"
   xmlns:inkscape="http://www.inkscape.org/namespaces/inkscape"
   width="2133.3335"
   height="1069.1423"
   viewBox="0 0 564.44447 282.87724"
   version="1.1"
   id="svg8"
   inkscape:version="0.92.3 (unknown)"
   sodipodi:docname="mountains-4.svg">
  <defs
     id="defs2" />
  <sodipodi:namedview
     id="base"
     pagecolor="#ffffff"
     bordercolor="#666666"
     borderopacity="1.0"
     inkscape:pageopacity="0.0"
     inkscape:pageshadow="2"
     inkscape:zoom="0.32"
     inkscape:cx="679.00789"
     inkscape:cy="634.80436"
     inkscape:document-units="mm"
     inkscape:current-layer="layer2"
     showgrid="false"
     units="px"
     inkscape:window-width="1859"
     inkscape:window-height="1176"
     inkscape:window-x="1981"
     inkscape:window-y="24"
     inkscape:window-maximized="1" />
  <metadata
     id="metadata5">
    <rdf:RDF>
      <cc:Work
         rdf:about="">
        <dc:format>image/svg+xml</dc:format>
        <dc:type
           rdf:resource="http://purl.org/dc/dcmitype/StillImage" />
        <dc:title />
      </cc:Work>
    </rdf:RDF>
  </metadata>
  <g
     inkscape:groupmode="layer"
     id="layer2"
     inkscape:label="outline"
     style="display:inline"
     transform="translate(162.26672,45.586861)">
    <g
       style="display:inline"
       id="g6998"
       transform="translate(-871.14855,-530.3351)">
      <path
         style="display:inline;fill:#9fa5bf;fill-opacity:1;stroke-width:0.35277778"
         d="m 707.29433,678.06604 v -89.5594 l 1.32292,-0.21866 c 0.7276,-0.12027 3.63112,-0.22041 4.51199,-0.22255 0.88087,-0.002 2.5366,-0.24743 3.67941,-0.54509 1.1428,-0.29766 3.04147,-0.63735 4.21925,-0.75486 1.17779,-0.1175 2.5484,-0.41836 3.0458,-0.66856 0.4974,-0.2502 2.24365,-0.62082 3.88055,-0.82361 7.62779,-0.94495 13.20763,-2.95306 17.76368,-6.39291 1.83754,-1.38736 3.2713,-1.84753 7.08473,-2.2739 1.16417,-0.13017 3.5721,-0.62774 5.35096,-1.10574 1.77886,-0.47799 4.47761,-1.01218 5.99722,-1.18709 3.42544,-0.39429 5.72243,-1.37504 8.23099,-3.51444 1.06715,-0.91011 3.52777,-2.77818 5.46805,-4.15127 1.94028,-1.37308 4.14492,-2.99049 4.8992,-3.59424 0.75429,-0.60375 1.57476,-1.09773 1.82328,-1.09773 0.24852,0 1.29826,-0.72249 2.33274,-1.60553 1.03449,-0.88305 3.23027,-2.32266 4.8795,-3.19913 1.64924,-0.87648 4.5456,-2.62267 6.43637,-3.88041 1.89077,-1.25775 4.32934,-2.75581 5.41905,-3.32903 1.08971,-0.57322 3.59085,-2.17863 5.55807,-3.56757 1.9672,-1.38895 4.4499,-2.86961 5.5171,-3.29036 1.0671,-0.42076 3.0515,-1.45321 4.4097,-2.29435 1.3582,-0.84113 3.0251,-1.77786 3.7042,-2.08161 0.6791,-0.30376 3.2191,-1.52495 5.6444,-2.71376 5.2095,-2.5535 8.2455,-3.87825 9.7014,-4.23315 0.5821,-0.1419 2.0902,-0.68899 3.3514,-1.21576 1.2612,-0.52677 3.1607,-1.16016 4.2212,-1.40755 1.6589,-0.38696 2.2937,-0.80707 4.5445,-3.00735 2.4027,-2.3488 2.7665,-2.57632 4.4569,-2.78753 2.0385,-0.25469 6.1037,0.62942 8.5202,1.85295 0.7503,0.37988 1.8813,0.80234 2.5135,0.93879 0.6321,0.13646 2.0196,0.95703 3.0833,1.82349 1.0637,0.86647 2.5309,1.82254 3.2604,2.12461 0.7295,0.30206 2.1309,0.92749 3.1143,1.38983 0.9834,0.46235 4.3958,1.72627 7.5831,2.80873 3.1874,1.08245 6.9072,2.57793 8.2663,3.32329 1.359,0.74535 3.741,1.78173 5.2932,2.30308 1.5522,0.52135 3.8541,1.39055 5.1153,1.93157 3.196,1.371 12.0618,4.54873 14.8167,5.31066 1.2611,0.34881 3.2104,1.04475 4.3315,1.54653 2.4363,1.09034 3.81,1.13901 6.515,0.23082 4.4791,-1.50385 7.1507,-1.86539 10.7874,-1.45988 1.862,0.20763 4.3045,0.37672 5.4279,0.37576 1.1233,-10e-4 2.7567,0.22772 3.6298,0.50816 4.8335,1.5525 7.559,2.34631 10.407,3.03106 2.6214,0.63026 3.421,0.99196 4.5861,2.07443 0.7761,0.72109 2.0461,1.76529 2.8222,2.32045 0.7761,0.55515 3.2367,2.85308 5.4681,5.1065 2.2313,2.25342 4.5592,4.44951 5.1731,4.88021 1.5514,1.08829 10.1644,3.24761 12.954,3.24761 1.222,0 3.0011,0.2364 3.9536,0.52535 1.0674,0.32381 3.1866,0.52681 5.5241,0.52916 4.34561,0.004 4.28551,0.0368 6.61891,-3.57338 0.8414,-1.30182 1.4636,-2.75984 1.6092,-3.77061 0.3406,-2.36567 0.9826,-3.73687 2.8834,-6.15849 3.3484,-4.26571 4.9278,-5.7023 8.7919,-7.99629 2.1015,-1.24758 4.3106,-2.62292 4.909,-3.05631 0.5986,-0.43338 2.0559,-1.18113 3.2384,-1.66166 1.1825,-0.48053 3.3633,-1.68866 4.846,-2.68474 1.4827,-0.99607 3.6907,-2.28105 4.9066,-2.8555 1.8087,-0.85462 3.3692,-2.19009 8.5858,-7.34779 4.9499,-7.31069 16.9074,-2.20391 22.0709,-8.24479 0.4738,-0.63446 1.0576,-1.78856 1.2972,-2.56468 0.5598,-1.81372 1.8742,-4.10397 3.2633,-5.68594 0.6795,-0.77398 2.5392,-1.97205 4.8949,-3.1535 5.2715,-5.36828 15.4946,-7.91889 15.4946,-7.91889 1.2351,-4.27273 7.8431,-8.22828 10.0828,-9.73694 23.041,-12.91846 14.0122,-10.49804 38.0741,-0.94458 0.4835,0.62433 1.6279,1.57407 2.5433,2.11053 1.914,1.1217 3.0111,2.28398 5.7595,6.10225 l 21.4117,12.70068 c 2.1455,3.58398 3.4276,4.8681 7.8072,7.81905 1.8244,1.22931 3.8088,2.58283 4.4097,3.0078 46.4653,17.75598 83.2788,16.49332 94.6845,24.07158 0,0 0.4234,27.78916 0.4234,107.44741 v 111.6542 H 991.10399 707.29433 Z"
         id="path7010"
         inkscape:connector-curvature="0"
         sodipodi:nodetypes="ccccccsccccccccssccsccccscscsscccccccccccsccccccccscccscccccccccccccccccccsccccc" />
    </g>
  </g>
</svg>
