<?xml version="1.0" encoding="UTF-8" standalone="no"?>
<!-- Created with Inkscape (http://www.inkscape.org/) -->

<svg
   xmlns:dc="http://purl.org/dc/elements/1.1/"
   xmlns:cc="http://creativecommons.org/ns#"
   xmlns:rdf="http://www.w3.org/1999/02/22-rdf-syntax-ns#"
   xmlns:svg="http://www.w3.org/2000/svg"
   xmlns="http://www.w3.org/2000/svg"
   xmlns:sodipodi="http://sodipodi.sourceforge.net/DTD/sodipodi-0.dtd"
   xmlns:inkscape="http://www.inkscape.org/namespaces/inkscape"
   width="2133.3335"
   height="758.70038"
   viewBox="0 0 564.44447 200.73947"
   version="1.1"
   id="svg8"
   inkscape:version="0.92.3 (unknown)"
   sodipodi:docname="mountains-3.svg">
  <defs
     id="defs2" />
  <sodipodi:namedview
     id="base"
     pagecolor="#ffffff"
     bordercolor="#666666"
     borderopacity="1.0"
     inkscape:pageopacity="0.0"
     inkscape:pageshadow="2"
     inkscape:zoom="0.5"
     inkscape:cx="956.7463"
     inkscape:cy="280.25421"
     inkscape:document-units="mm"
     inkscape:current-layer="layer2"
     showgrid="false"
     units="px"
     inkscape:window-width="1859"
     inkscape:window-height="1176"
     inkscape:window-x="1981"
     inkscape:window-y="24"
     inkscape:window-maximized="1" />
  <metadata
     id="metadata5">
    <rdf:RDF>
      <cc:Work
         rdf:about="">
        <dc:format>image/svg+xml</dc:format>
        <dc:type
           rdf:resource="http://purl.org/dc/dcmitype/StillImage" />
        <dc:title />
      </cc:Work>
    </rdf:RDF>
  </metadata>
  <g
     inkscape:groupmode="layer"
     id="layer2"
     inkscape:label="layer1"
     style="display:inline"
     transform="translate(136.07431,-153.29411)">
    <g
       style="display:inline"
       id="g6998"
       transform="translate(-871.14855,-530.3351)">
      <path
         style="display:inline;fill:#556273;fill-opacity:1;stroke-width:0.35277778"
         d="m 732.96297,804.20001 c 0.003,-45.5629 0.13946,-80.38045 0.31596,-80.65917 0.58629,-0.92582 11.30052,-3.28394 21.0217,-5.18523 3.66945,-0.71768 5.29061,-0.8285 12.17083,-0.832 5.89662,-0.003 8.52709,0.13456 10.23056,0.53504 2.30582,0.54206 4.55747,0.94609 12.71149,2.28094 2.43167,0.39808 6.95605,0.8599 10.05417,1.02627 3.09812,0.16637 7.77607,0.63006 10.39544,1.03041 2.61938,0.40036 6.05988,0.88456 7.64557,1.07601 1.58569,0.19145 3.88756,0.66849 5.11528,1.06008 1.22771,0.3916 3.31926,1.04922 4.64789,1.46139 l 2.41567,0.74939 0.93572,-0.87706 c 1.12129,-1.05101 4.01445,-2.53273 5.62565,-2.88115 0.6391,-0.13822 3.8141,-0.38503 7.0555,-0.54849 7.4395,-0.37515 10.4737,-1.00438 13.4687,-2.79314 2.2537,-1.34607 2.3968,-1.38039 6.7498,-1.61994 3.3129,-0.18231 4.6603,-0.13072 5.2825,0.20223 0.4593,0.24583 2.0161,1.70234 3.4595,3.23668 1.4434,1.53434 3.266,3.11704 4.0502,3.51712 3.1082,1.58569 8.8299,3.80383 11.6059,4.49929 2.7047,0.67758 3.0618,0.69384 4.6803,0.21306 0.9636,-0.28628 2.5324,-1.042 3.4861,-1.67938 3.8547,-2.57614 5.7598,-3.72772 6.5778,-3.97602 0.4732,-0.14363 1.688,-0.80342 2.6994,-1.46619 2.7158,-1.77963 5.4049,-2.94127 6.8177,-2.94517 0.6866,-0.002 1.8364,-0.30326 2.5551,-0.66969 2.944,-1.50092 4.3766,-1.85894 8.5237,-2.13003 5.5121,-0.36034 7.1311,-1.04114 11.066,-4.65318 2.6254,-2.40996 3.3654,-2.87308 6.7121,-4.20056 5.3049,-2.10417 6.3054,-2.66671 7.2032,-4.05008 0.4773,-0.7354 1.6319,-1.66612 2.9082,-2.34423 1.1642,-0.61852 2.6067,-1.49375 3.2055,-1.94493 0.5988,-0.45118 2.1842,-1.21765 3.523,-1.70326 1.3388,-0.48561 3.2301,-1.41566 4.2029,-2.06679 0.9727,-0.65111 2.5085,-1.64384 3.4128,-2.20603 0.9043,-0.56219 2.8666,-2.03888 4.3605,-3.28152 3.0197,-2.51175 3.9103,-2.81535 8.332,-2.84056 2.9564,-0.0169 7.4656,-1.08705 11.184,-2.65437 3.0413,-1.28192 9.9519,-1.65742 13.8829,-0.75434 7.2641,1.6688 8.8508,1.97747 12.102,2.3543 1.9402,0.22489 6.0677,0.51099 9.1722,0.63577 l 5.6444,0.22689 4.7625,2.23976 c 2.6194,1.23188 5.8355,2.62883 7.1468,3.10434 1.3114,0.47551 3.9308,1.63583 5.8208,2.5785 4.5307,2.2596 12.0346,4.09951 19.2973,4.73153 1.6318,0.14201 1.8798,0.29966 3.6832,2.34201 1.0634,1.20436 2.6574,3.1648 3.542,4.35654 1.5756,2.12234 1.6773,2.18953 4.9599,3.27743 3.6438,1.20757 9.4341,2.08768 11.7188,1.78123 0.7896,-0.1059 2.3204,-0.0485 3.4017,0.12744 1.2566,0.20454 2.0911,0.19489 2.3128,-0.0268 0.2272,-0.22715 0.2007,-0.34675 -0.077,-0.34675 -0.2329,0 -0.4234,-0.15875 -0.4234,-0.35278 0,-0.20969 1.1089,-0.32988 2.734,-0.29632 1.5039,0.031 2.2181,0.12049 1.5875,0.19874 -0.6305,0.0783 -1.1465,0.31188 -1.1465,0.51916 0,0.4919 2.9375,0.11506 3.1086,-0.39882 0.069,-0.20655 0.3819,-0.37553 0.6955,-0.37553 0.4436,0 0.4764,0.0941 0.1471,0.42333 -0.6783,0.67826 -0.4959,0.98777 0.582,0.98777 0.9754,0 3.2571,1.39172 4.2413,2.58702 0.2663,0.32339 0.6981,0.58798 0.9594,0.58798 0.2614,0 1.07,0.334 1.7967,0.74221 0.8442,0.47417 1.3683,0.60157 1.4513,0.35277 0.1759,-0.52789 1.0219,-0.49372 1.2763,0.0516 0.1646,0.35277 0.2469,0.35277 0.4115,0 0.1133,-0.24254 0.3778,-0.44098 0.588,-0.44098 0.2102,0 0.2778,0.10446 0.15,0.23212 -0.1276,0.12767 -0.045,0.45728 0.1831,0.73245 0.3229,0.38891 0.3048,0.56861 -0.081,0.80702 -0.273,0.16869 -0.4215,0.37302 -0.3301,0.45406 0.5594,0.49598 3.6333,2.00768 4.0824,2.00768 0.297,0 0.8867,0.19589 1.3104,0.43531 1.4459,0.81685 4.2945,1.39522 8.1952,1.66392 2.1434,0.14764 4.2105,0.43633 4.5941,0.64153 0.8559,0.45815 3.9683,1.1449 6.2861,1.38707 1.2565,0.13127 1.5915,0.27406 1.2349,0.52621 -0.3472,0.24531 -0.2329,0.2762 0.3922,0.10609 0.4851,-0.13199 1.3578,-0.32828 1.9392,-0.4362 0.9195,-0.17068 0.9988,-0.12584 0.6084,0.34442 -0.382,0.46032 -0.3031,0.56557 0.5303,0.70847 0.5386,0.0923 1.2569,0.28666 1.5964,0.43187 0.3919,0.16754 0.6174,0.10925 0.6174,-0.15953 0,-0.23295 -0.3175,-0.50656 -0.7055,-0.60805 -0.8784,-0.2297 -0.9288,-0.80777 -0.07,-0.80777 0.8231,0 2.5335,0.79521 2.5371,1.17955 0,0.16369 -0.3147,0.38064 -0.7029,0.48212 -0.924,0.24164 -0.9094,0.80777 0.021,0.80777 0.3995,0 0.6276,0.15987 0.5069,0.35527 -0.1208,0.1954 0.059,0.46209 0.3989,0.59263 0.3558,0.13653 0.6775,0.0605 0.7574,-0.17888 0.076,-0.22893 0.46,-0.41624 0.8526,-0.41624 0.522,0 0.6531,0.15841 0.4878,0.58916 -0.1245,0.32478 -0.023,0.71811 0.2268,0.87654 0.6287,0.39891 2.1277,0.37201 1.8771,-0.0337 -0.1211,-0.19586 0.2857,-0.25222 0.9926,-0.13751 0.7036,0.11419 1.2976,0.0328 1.4399,-0.19728 0.133,-0.2154 0.5801,-0.39166 0.9933,-0.39166 h 0.7512 l -0.7721,0.7193 c -0.4245,0.39561 -0.7721,0.83566 -0.7721,0.97788 0,0.14222 1.0277,0.45353 2.2839,0.69181 2.8375,0.53829 19.5884,-3.62624 19.5884,-4.15293 0,-0.19403 0.7144,-0.35278 1.5875,-0.35278 0.8731,0 1.5875,0.15479 1.5875,0.34397 0,0.19205 -0.5064,0.25958 -1.1466,0.1529 -1.7447,-0.29074 -0.548,0.33292 2.7341,1.42478 4.2082,1.39997 4.9288,1.60613 5.615,1.60613 0.3443,0 1.0475,0.21612 1.5625,0.48026 1.9363,0.99312 3.0809,-1.96857 3.7699,-2.47238 0.7633,-0.55822 1.9289,-0.63347 1.9289,-0.12454 0,0.19402 -0.238,0.35277 -0.5291,0.35277 -0.2911,0 -0.5292,0.13397 -0.5292,0.29771 0,0.404 8.8449,-1.88818 19.3707,-1.87131 7.383,0.0118 9.1481,-3.58419 11.8501,-2.97825 1.7464,0.39159 4.3658,0.9504 5.8209,1.24179 1.4552,0.29139 3.2014,-0.38506 3.8805,-0.20968 3.5668,0.92112 6.1087,1.38862 8.7314,1.60586 2.8094,0.23274 2.9103,0.21507 2.9103,-0.51001 0,-0.80813 0.4956,-2.50406 2.4253,-2.11812 1.1863,0.23725 1.4961,1.05168 0.4851,1.2757 -0.3504,0.0777 0.069,-1.80866 0.9702,-1.58388 0.8731,0.21777 2.2225,0.55769 2.9986,0.75538 0.8878,0.22615 1.4547,0.23439 1.5286,0.0223 0.065,-0.18544 0.7488,-0.33716 1.5203,-0.33716 0.8451,0 1.3158,0.14019 1.1844,0.35278 -0.3076,0.49762 3.1007,-0.60649 4.2167,-1.11494 0.4942,-0.22517 0.8986,-0.62204 0.8986,-0.88194 0,-0.2599 0.2381,-0.47254 0.5291,-0.47254 0.2911,0 0.5292,-0.14177 0.5292,-0.31504 0,-0.17327 -0.2381,-0.40641 -0.5292,-0.51809 -0.8856,-0.33985 -0.6262,-1.28354 0.3528,-1.28354 0.4851,0 0.882,0.15875 0.882,0.35278 0,0.19403 0.2993,0.35278 0.6652,0.35278 0.3658,0 1.12,-1.87952 1.6757,-1.58967 l 1.0105,0.52699 -1.323,0.002 c -0.7435,10e-4 -1.3229,2.29267 -1.3229,2.51571 0,0.25635 0.3904,0.3188 1.1024,0.17639 0.6064,-0.12128 1.3301,-2.33715 1.6084,-2.33715 0.2782,0 0.4282,-0.12558 0.3334,-0.27905 -0.095,-0.15348 0.3746,-0.2152 1.043,-0.13715 0.6685,0.078 1.9668,0.0292 2.885,-0.10847 l 1.6696,-0.25038 -1.0577,-0.44531 c -0.6487,-0.2731 -1.2874,-0.32789 -1.6519,-0.14165 -0.8156,0.41686 -1.1033,0.38481 -1.896,-0.21121 -0.6104,-0.45892 -0.1595,-0.50958 4.1478,-0.46607 2.6579,0.0268 4.7519,0.17918 4.6534,0.3385 -0.099,0.15933 1.9338,-1.82942 4.5161,-1.83239 3.1618,-0.004 4.5223,-0.11709 4.166,-0.34738 -0.4027,-0.26021 -0.2601,-0.34326 0.5965,-0.34738 1.2119,-0.006 1.89,0.60632 1.1667,1.05332 -0.4748,0.29347 2.611,-0.50239 3.9867,-0.56471 0.7452,-0.0338 0.7425,-0.0447 -0.067,-0.2714 -0.4639,-0.12994 -1.0786,0.99714 -1.3658,0.56433 -0.4783,-0.72017 -0.4666,-0.78598 0.1377,-0.77573 0.3632,0.006 0.9686,0.24431 1.3452,0.52918 0.3767,0.28487 1.1611,-1.59872 1.7431,-1.59872 0.9262,0 0.9847,-1.5324 0.4684,-1.14653 -0.8673,0.64826 -0.3452,0.0732 2.219,0.99519 1.2612,0.45348 4.074,-0.51758 4.3103,-0.21763 0.3345,0.42444 0.4322,46.25471 0.4411,100.82245 l 0.011,186.53128 H 1017.2964 732.95757 Z m 565.33593,-92.13882 c -0.3417,-0.55311 1.8961,-0.68746 2.3802,-0.16374 0.3737,0.40423 0.3615,0.49215 -0.067,0.49215 -0.2872,0 -2.2009,-0.14778 -2.3127,-0.32841 z m -59.458,12.49924 c -0.4522,-0.29226 -0.4395,-0.34277 0.088,-0.34739 0.3395,-0.003 0.6173,0.15335 0.6173,0.34739 0,0.43024 -0.04,0.43024 -0.7056,0 z m 3.1469,-0.21028 c -0.4081,-0.49158 -0.361,-0.54755 0.3701,-0.44096 0.4605,0.0671 0.9027,0.3205 0.9826,0.56304 0.209,0.63471 -0.8002,0.54363 -1.3527,-0.12208 z m -12.4074,-0.72891 c 0.2426,-0.0979 0.6395,-0.0979 0.8821,0 0.2424,0.0979 0.044,0.17793 -0.4411,0.17793 -0.485,0 -0.6835,-0.0801 -0.441,-0.17793 z m -2.4988,-0.70711 c -0.4472,-0.44725 -0.2325,-0.82315 0.4704,-0.82315 0.3919,0 0.7055,0.23519 0.7055,0.52918 0,0.53706 -0.7463,0.72363 -1.1759,0.29397 z m -32.3379,3.58658 c 0,-0.29105 0.238,-0.52917 0.5291,-0.52917 0.2911,0 0.5292,0.23812 0.5292,0.52917 0,0.29104 -0.2381,0.52916 -0.5292,0.52916 -0.2911,0 -0.5291,-0.23812 -0.5291,-0.52916 z m -5.7107,2.40484 c 0.2548,-0.1019 0.5591,-3.2644 0.6762,-3.1472 0.1172,0.11723 -0.091,3.3756 -0.463,3.36028 -0.411,-0.0169 -0.4945,-0.10052 -0.2132,-0.21313 z m -7.6949,-2.22846 c -0.3315,-0.61931 -0.2682,-0.70555 0.5167,-0.70555 0.9732,0 0.9964,0.0291 0.6802,0.85309 -0.2905,0.75721 -0.7425,0.7015 -1.1969,-0.14754 z m -42.7523,-2.71043 c 0.2548,-0.10191 0.5589,-0.0894 0.6762,0.0278 0.1172,0.11723 -0.091,0.20061 -0.463,0.18529 -0.411,-0.0169 -0.4945,-0.10052 -0.2132,-0.21313 z m -3.4616,-1.01456 c 0,-0.30249 0.1587,-0.45187 0.3528,-0.33195 0.1941,0.11991 0.3528,0.36741 0.3528,0.54998 0,0.18258 -0.1587,0.33196 -0.3528,0.33196 -0.1941,0 -0.3528,-0.24749 -0.3528,-0.54999 z m 2.1167,-0.86111 c 0,-0.19404 0.4365,-0.34163 0.9702,-0.32798 0.8595,0.022 0.8898,0.0593 0.2645,0.32798 -0.9635,0.41405 -1.2347,0.41405 -1.2347,0 z m -2.8883,-0.241 c 0.2545,-0.1019 0.5588,-0.0894 0.676,0.0278 0.1173,0.11722 -0.091,0.2006 -0.4629,0.18528 -0.4111,-0.0169 -0.4946,-0.10052 -0.2131,-0.21313 z m -13.9836,-1.8952 c -0.743,-0.94056 -0.7598,-1.03836 -0.1765,-1.03399 1.4928,0.0112 2.2317,0.43196 2.2317,1.27105 0,1.1774 -1.032,1.05837 -2.0552,-0.23706 z m -3.0601,-0.68603 c -0.1199,-0.19402 0.039,-0.35277 0.3528,-0.35277 0.3139,0 0.4727,0.15875 0.3528,0.35277 -0.12,0.19402 -0.2786,0.35277 -0.3528,0.35277 -0.074,0 -0.2328,-0.15875 -0.3528,-0.35277 z m -8.5549,-5.17253 c -0.5045,-0.20362 -0.5993,-0.8247 -0.1258,-0.8247 0.1733,0 0.4064,0.23813 0.518,0.52917 0.1117,0.29104 0.1684,0.51663 0.1259,0.50132 -0.042,-0.0153 -0.2755,-0.10793 -0.5181,-0.20579 z m -1.4992,-2.23581 c -0.428,-0.27653 -0.3773,-0.343 0.2645,-0.34737 0.4367,-0.003 0.7938,0.15335 0.7938,0.34737 0,0.44201 -0.3743,0.44201 -1.0583,0 z"
         id="path7008"
         inkscape:connector-curvature="0"
         sodipodi:nodetypes="ccssccsssccccsssscsssccccccccccccscsccscscccsccccscccssccscscscsccccsccccsccccccccccscsccscccscccccsccsssssccsccsssccsccssccccsccssscssscccscsccccccccccccccccccsccccccccccsccccsccccccccsccsscsssssccccccscccccccscssssccscccccccsccscsccssccccsc" />
    </g>
  </g>
</svg>
