<?xml version="1.0" encoding="UTF-8" standalone="no"?>
<!-- Created with Inkscape (http://www.inkscape.org/) -->

<svg
   xmlns:dc="http://purl.org/dc/elements/1.1/"
   xmlns:cc="http://creativecommons.org/ns#"
   xmlns:rdf="http://www.w3.org/1999/02/22-rdf-syntax-ns#"
   xmlns:svg="http://www.w3.org/2000/svg"
   xmlns="http://www.w3.org/2000/svg"
   xmlns:sodipodi="http://sodipodi.sourceforge.net/DTD/sodipodi-0.dtd"
   xmlns:inkscape="http://www.inkscape.org/namespaces/inkscape"
   width="2133.3325"
   height="626.99084"
   viewBox="0 0 564.44421 165.89132"
   version="1.1"
   id="svg8"
   inkscape:version="0.92.3 (unknown)"
   sodipodi:docname="mountains-2.svg">
  <defs
     id="defs2" />
  <sodipodi:namedview
     id="base"
     pagecolor="#ffffff"
     bordercolor="#666666"
     borderopacity="1.0"
     inkscape:pageopacity="0.0"
     inkscape:pageshadow="2"
     inkscape:zoom="0.3535534"
     inkscape:cx="1008.035"
     inkscape:cy="138.52966"
     inkscape:document-units="mm"
     inkscape:current-layer="layer2"
     showgrid="false"
     units="px"
     inkscape:window-width="1859"
     inkscape:window-height="1176"
     inkscape:window-x="1981"
     inkscape:window-y="24"
     inkscape:window-maximized="1" />
  <metadata
     id="metadata5">
    <rdf:RDF>
      <cc:Work
         rdf:about="">
        <dc:format>image/svg+xml</dc:format>
        <dc:type
           rdf:resource="http://purl.org/dc/dcmitype/StillImage" />
        <dc:title />
      </cc:Work>
    </rdf:RDF>
  </metadata>
  <g
     inkscape:groupmode="layer"
     id="layer2"
     inkscape:label="layer1"
     style="display:inline"
     transform="translate(98.30085,-63.61838)">
    <g
       style="display:inline"
       id="g6998"
       transform="translate(-758.147,-455.87381)">
      <path
         style="display:inline;fill:#304059;fill-opacity:1;stroke-width:0.35277778"
         d="m 659.84615,616.59189 c 0,-37.83542 0.0404,-68.79168 0.0897,-68.79168 0.0494,0 1.20029,-0.40934 2.55764,-0.90966 1.35736,-0.50032 4.37292,-1.55974 6.70125,-2.35429 l 4.23334,-1.44462 13.93472,-0.26481 c 17.77787,-0.33784 21.24304,-0.71168 24.54905,-2.64845 0.79315,-0.46466 1.67075,-0.84483 1.95022,-0.84483 0.65043,0 5.45355,-2.2942 5.72598,-2.735 0.21216,-0.34327 3.96019,-1.94612 9.65951,-4.13089 l 3.2556,-1.248 h 7.71274 7.71275 l 2.84894,-1.41111 c 1.56692,-0.77611 3.0692,-1.41111 3.33841,-1.41111 0.26921,0 1.05874,-0.51594 1.75451,-1.14653 0.69577,-0.63059 2.19523,-1.528 3.33213,-1.99423 1.79613,-0.73658 2.76076,-0.86451 7.35876,-0.97591 4.69571,-0.11377 7.59193,-0.49314 11.81883,-1.54813 0.67952,-0.1696 2.18765,-0.89195 3.35139,-1.60522 2.10864,-1.29241 2.13227,-1.29744 6.89384,-1.46604 l 4.77794,-0.16919 2.27761,2.45271 c 3.37968,3.63949 5.03858,4.73332 10.43603,6.88118 4.95942,1.97355 6.67651,2.47098 10.60154,3.07122 2.23245,0.3414 9.2271,3.32056 11.22615,4.78144 0.58208,0.42538 2.16958,1.38982 3.52778,2.14322 1.35819,0.7534 3.57701,2.22372 4.93069,3.2674 1.35369,1.04367 3.05907,2.20257 3.78972,2.57532 0.73066,0.37275 2.61578,1.6673 4.18916,2.87677 5.04299,3.87658 4.17327,3.61015 11.78487,3.61015 4.69198,0 7.28485,-0.15207 8.64305,-0.50692 1.07138,-0.27992 3.59911,-0.51207 5.64445,-0.51842 3.58741,-0.0111 3.77641,0.028 5.99721,1.24103 3.2983,1.80158 8.274,3.09543 11.9997,3.12034 1.8298,0.0122 2.7647,0.23995 4.5861,1.11705 1.2583,0.60592 2.6573,1.43936 3.109,1.85208 0.7562,0.6911 1.2833,0.7593 6.6695,0.86305 6.1306,0.11809 7.5024,-0.0172 7.5024,-0.74007 0,-0.24067 0.3373,-0.64823 0.7495,-0.90568 0.675,-0.42153 0.8507,-0.35737 1.7662,0.64494 0.6807,0.74531 1.2781,1.07588 1.8081,1.00059 1.2457,-0.17695 0.9752,-1.15305 -0.3551,-1.28131 -0.7128,-0.0687 -1.1465,-0.30313 -1.1465,-0.61969 0,-0.28003 -0.3969,-0.85423 -0.8819,-1.27599 -1.3833,-1.20273 -1.1474,-1.89214 0.5888,-1.72122 0.4281,0.0421 0.5377,-0.13773 0.4015,-0.65864 -0.1405,-0.53738 0.043,-0.80424 0.734,-1.06695 0.5068,-0.19269 0.9215,-0.47483 0.9215,-0.62698 0,-0.48755 1.3644,-1.14772 1.9263,-0.93208 0.2987,0.11463 0.5431,0.58831 0.5431,1.05262 0,0.67188 0.1855,0.8442 0.9086,0.8442 0.8032,0 0.8954,-0.12529 0.7951,-1.08139 -0.091,-0.87209 0.079,-1.1964 0.8786,-1.67569 0.9342,-0.55967 1.0186,-0.55832 1.4486,0.023 0.5601,0.75719 0.908,0.791 0.908,0.0882 0,-0.37047 0.3736,-0.52917 1.2458,-0.52917 0.7987,0 1.3051,0.18991 1.4111,0.52917 0.091,0.29105 0.2699,0.80698 0.3977,1.14653 0.1279,0.33955 0.2109,0.72537 0.1846,0.85739 -0.026,0.13203 0.1798,0.67875 0.458,1.21496 0.5643,1.08762 0.7933,0.78436 0.9635,-1.2757 0.07,-0.84214 0.2971,-1.26884 0.7192,-1.34878 0.4221,-0.08 0.6173,0.10746 0.6173,0.59268 0,0.55508 0.2114,0.69517 0.9702,0.64322 0.9482,-0.0649 0.9682,-0.0266 0.8836,1.69748 -0.069,1.39542 -0.016,1.59808 0.2532,0.97014 0.2014,-0.47061 0.6476,-0.79375 1.0959,-0.79375 0.6732,0 0.7308,0.13558 0.5246,1.23472 -0.1803,0.96119 -0.1155,1.23472 0.2927,1.23472 0.2884,0 0.6276,-0.16713 0.7538,-0.3714 0.1263,-0.20427 0.4054,-0.31278 0.6204,-0.24113 0.571,0.19032 0.5909,3.12769 0.027,4.03971 -0.7503,1.21421 -0.5743,1.72008 0.311,0.8938 1.0142,-0.94669 2.5649,-1.35211 2.9276,-0.76535 0.1736,0.28098 -0.2864,0.927 -1.2844,1.80376 l -1.5551,1.36598 1.3404,-0.0921 c 0.8158,-0.0561 1.4526,0.0896 1.6274,0.37236 0.1578,0.25545 0.6364,0.4109 1.0634,0.34542 0.5959,-0.0914 1.0854,-0.81659 2.1044,-3.11767 0.7303,-1.64924 1.4743,-2.9866 1.6531,-2.97192 0.1789,0.0147 0.7748,0.94272 1.3243,2.0623 0.9906,2.01841 1.0097,2.03363 2.254,1.80019 2.8271,-0.53036 3.7881,-1.0427 4.508,-2.40338 0.5552,-1.04925 0.8639,-1.2946 1.4481,-1.1512 0.4407,0.10818 1.516,-0.23545 2.6458,-0.84551 1.9249,-1.03942 5.6731,-2.39946 9.1671,-3.32635 1.0496,-0.27845 3.4166,-0.9081 5.2598,-1.39922 1.8433,-0.49111 5.1972,-1.13004 7.4532,-1.41982 4.6954,-0.60313 11.3034,-2.08476 13.8899,-3.11436 0.9701,-0.38619 2.5857,-0.92737 3.5901,-1.20264 2.552,-0.69939 5.2461,-1.99999 6.2759,-3.02984 0.47944,-0.47939 1.52364,-1.06696 2.32054,-1.3057 0.7968,-0.23875 3.5855,-1.2915 6.1971,-2.33944 l 4.7484,-1.90536 5.0145,-0.0471 c 5.4932,-0.0516 8.0087,0.28276 13.7763,1.83095 4.5356,1.2175 5.3135,1.59016 7.6487,3.66417 3.4976,3.10635 4.8289,3.5382 12.5174,4.06028 2.9104,0.19762 6.2441,0.60133 7.4083,0.89712 1.1642,0.29578 3.7836,0.69533 5.8208,0.88789 12.8896,1.21821 13.0668,1.25626 15.1181,3.24719 1.582,1.5354 4.7921,3.42562 5.8177,3.42562 0.2739,0 0.6953,-0.47626 0.9365,-1.05834 0.5684,-1.37242 1.2487,-1.34207 1.976,0.0882 0.3208,0.63059 0.6549,1.2259 0.7426,1.32292 41.0281,-0.99956 92.8333,27.81847 134.8345,20.26609 0.8695,28.42025 -0.3596,23.37607 -0.3504,41.7346 l 0.028,126.02984 H 942.06836 659.84615 Z m 269.25761,-55.64367 c 0.3396,-0.0976 0.6174,-0.31775 0.6174,-0.48915 0,-0.1714 -0.2778,-0.30658 -0.6174,-0.30041 -0.6694,0.0122 -1.8521,0.78606 -1.8521,1.21194 0,0.14489 0.2778,0.14907 0.6174,0.009 0.3395,-0.13979 0.8952,-0.33404 1.2347,-0.43167 z m -6.791,-3.07302 c 0,-0.47362 -0.1587,-0.95923 -0.3527,-1.07915 -0.2059,-0.12721 -0.3528,0.23152 -0.3528,0.86112 0,0.59354 0.1587,1.07916 0.3528,1.07916 0.194,0 0.3527,-0.38751 0.3527,-0.86113 z m 9.3896,-2.1e-4 c 0.1073,-0.27971 0.142,-0.7711 0.077,-1.09199 -0.1036,-0.51214 -0.237,-0.48965 -1.0916,0.18403 -0.5354,0.4221 -0.8832,0.9135 -0.7729,1.09199 0.3146,0.50901 1.571,0.37965 1.7873,-0.18403 z m -4.1694,-0.81436 c 0.6275,-1.65899 0.8404,-2.99119 0.4384,-2.74276 -0.2018,0.12472 -0.3669,0.50455 -0.3669,0.84407 0,0.33952 -0.2331,0.92547 -0.5179,1.3021 -0.5819,0.76937 -0.6992,1.56673 -0.2304,1.56673 0.1704,0 0.475,-0.43656 0.6768,-0.97014 z m -8.3952,-0.64055 c 0,-1.39651 -0.523,-2.62264 -1.1187,-2.62264 -0.386,0 -0.1818,2.85047 0.2549,3.55703 0.4403,0.71252 0.8638,0.25444 0.8638,-0.93439 z m 5.4304,-1.41677 c 0.3856,-1.00503 0.2025,-1.39657 -0.3263,-0.69747 -0.2849,0.37663 -0.5179,0.81319 -0.5179,0.97014 0,0.50495 0.623,0.30373 0.8442,-0.27267 z m -8.7465,-1.41754 c -0.1255,-0.32718 -0.3076,-0.5155 -0.4046,-0.41849 -0.097,0.097 -0.074,0.44409 0.052,0.77127 0.1255,0.32718 0.3076,0.5155 0.4046,0.41848 0.097,-0.097 0.074,-0.44408 -0.052,-0.77126 z"
         id="path7006-6"
         inkscape:connector-curvature="0"
         sodipodi:nodetypes="sscccscscsccccsscscscccssccccssccccccssccccsccccscsscccssccccccscccscsccccccccccccccccccccccccscsccccccsccccccccscscscccscsssccccccccscscsscsccscccccc" />
    </g>
  </g>
</svg>
