<?xml version="1.0" encoding="UTF-8" standalone="no"?>
<!-- Created with Inkscape (http://www.inkscape.org/) -->

<svg
   xmlns:dc="http://purl.org/dc/elements/1.1/"
   xmlns:cc="http://creativecommons.org/ns#"
   xmlns:rdf="http://www.w3.org/1999/02/22-rdf-syntax-ns#"
   xmlns:svg="http://www.w3.org/2000/svg"
   xmlns="http://www.w3.org/2000/svg"
   xmlns:sodipodi="http://sodipodi.sourceforge.net/DTD/sodipodi-0.dtd"
   xmlns:inkscape="http://www.inkscape.org/namespaces/inkscape"
   width="31.642851mm"
   height="31.636471mm"
   viewBox="0 0 31.642851 31.636471"
   version="1.1"
   id="svg8"
   inkscape:version="0.92.5 (2060ec1f9f, 2020-04-08)"
   sodipodi:docname="loading_icon.svg">
  <defs
     id="defs2" />
  <sodipodi:namedview
     id="base"
     pagecolor="#ffffff"
     bordercolor="#666666"
     borderopacity="1.0"
     inkscape:pageopacity="0.0"
     inkscape:pageshadow="2"
     inkscape:zoom="5.6"
     inkscape:cx="81.638422"
     inkscape:cy="61.353995"
     inkscape:document-units="mm"
     inkscape:current-layer="layer1"
     showgrid="false"
     inkscape:window-width="2488"
     inkscape:window-height="1376"
     inkscape:window-x="72"
     inkscape:window-y="27"
     inkscape:window-maximized="1" />
  <metadata
     id="metadata5">
    <rdf:RDF>
      <cc:Work
         rdf:about="">
        <dc:format>image/svg+xml</dc:format>
        <dc:type
           rdf:resource="http://purl.org/dc/dcmitype/StillImage" />
        <dc:title></dc:title>
      </cc:Work>
    </rdf:RDF>
  </metadata>
  <g
     inkscape:label="Layer 1"
     inkscape:groupmode="layer"
     id="layer1"
     transform="translate(-60.859149,-94.819336)">
    <g
       id="g4529"
       transform="translate(-4.9444863,0.33408691)">
      <path
         style="fill:#ba5ecf;stroke-width:0.17638889"
         d="m 78.966701,125.89085 c -3.410793,-0.57403 -6.170777,-2.03922 -8.539221,-4.5332 -1.538796,-1.62036 -2.181506,-2.54288 -3.077658,-4.41754 -1.113026,-2.32834 -1.451421,-3.87581 -1.456456,-6.66034 -0.0034,-1.90033 0.07288,-2.66625 0.377859,-3.79236 2.381031,-8.791784 11.060713,-13.790966 19.749784,-11.37516 4.517889,1.2561 8.633188,4.96509 10.339253,9.31844 1.148507,2.93063 1.418165,6.88185 0.65578,9.60892 -0.85535,3.05962 -2.293221,5.53893 -4.378358,7.54957 -3.764844,3.63033 -8.606976,5.15394 -13.670983,4.30167 z"
         id="path4543"
         inkscape:connector-curvature="0" />
      <path
         style="fill:#fdcf01;stroke-width:0.17638889"
         d="m 78.966701,125.90298 c -3.461115,-0.61352 -6.179399,-2.06043 -8.539221,-4.54533 -1.538796,-1.62036 -2.181506,-2.54288 -3.077658,-4.41754 -1.113026,-2.32834 -1.451421,-3.87581 -1.456456,-6.66034 -0.005,-2.78702 0.327126,-4.29797 1.470756,-6.69015 4.363121,-9.126527 15.669426,-11.942939 23.739771,-5.913596 4.295737,3.209336 6.815774,8.928096 6.225074,14.126656 -0.09463,0.83278 -0.247096,1.65437 -0.33882,1.82576 -0.483033,0.90255 -3.466971,2.22195 -5.439832,2.40531 -3.655033,0.3397 -7.622842,-1.76355 -9.309245,-4.93463 l -0.548319,-1.03104 -0.452725,0.81001 c -0.780272,1.39606 -1.203364,2.77313 -1.304149,4.24471 -0.128691,1.87902 0.142563,3.23193 0.995606,4.96566 0.85368,1.73504 2.567418,3.4621 4.173357,4.20581 1.485967,0.68816 1.522368,0.70929 1.544782,0.89676 0.03718,0.311 -2.423068,0.80309 -4.3894,0.87795 -1.190944,0.0453 -2.462898,-0.0188 -3.293521,-0.166 z"
         id="path4541"
         inkscape:connector-curvature="0" />
      <path
         style="fill:#6f78df;stroke-width:0.17638889"
         d="m 78.966701,125.90298 c -3.461115,-0.61352 -6.179399,-2.06043 -8.539221,-4.54533 -1.538796,-1.62036 -2.181506,-2.54288 -3.077658,-4.41754 -1.293123,-2.70509 -1.808559,-5.84987 -1.414179,-8.62818 l 0.211903,-1.49279 1.109756,-0.75256 c 3.049154,-2.06772 6.793835,-2.33197 10.013604,-0.70664 1.309703,0.66114 3.163003,2.38336 3.845127,3.57317 l 0.492014,0.85821 0.275274,-0.42012 c 0.549489,-0.83862 0.857637,-2.03596 0.946491,-3.67766 0.157109,-2.9028 -0.639907,-5.04705 -2.674805,-7.196147 -0.976729,-1.031546 -1.521603,-1.436325 -2.703521,-2.008406 -0.814137,-0.394066 -1.414604,-0.778892 -1.334368,-0.85517 0.284557,-0.270523 2.015491,-0.681813 3.758499,-0.893062 5.99686,-0.726809 12.192918,2.276934 15.239775,7.387985 1.734439,2.90949 2.56818,6.55318 2.213575,9.67394 -0.09463,0.83278 -0.247096,1.65437 -0.33882,1.82576 -0.483033,0.90255 -3.466971,2.22195 -5.439832,2.40531 -3.655033,0.3397 -7.622842,-1.76355 -9.309245,-4.93463 l -0.548319,-1.03104 -0.452725,0.81001 c -0.780272,1.39606 -1.203364,2.77313 -1.304149,4.24471 -0.128691,1.87902 0.142563,3.23193 0.995606,4.96566 0.85368,1.73504 2.567418,3.4621 4.173357,4.20581 1.485967,0.68816 1.522368,0.70929 1.544782,0.89676 0.03718,0.311 -2.423068,0.80309 -4.3894,0.87795 -1.190944,0.0453 -2.462898,-0.0188 -3.293521,-0.166 z"
         id="path4539"
         inkscape:connector-curvature="0" />
      <path
         style="fill:#fda303;stroke-width:0.17638889"
         d="m 79.493379,125.78823 c -3.328417,-0.48825 -7.04999,-2.29268 -8.649731,-4.19386 -0.225025,-0.26743 -0.534231,-0.53423 -0.687126,-0.59291 -0.479888,-0.18415 -1.937186,-2.27703 -2.737011,-3.93072 -1.360332,-2.81258 -1.886807,-5.9202 -1.483868,-8.75881 l 0.211903,-1.49279 1.109756,-0.75256 c 3.049154,-2.06772 6.793835,-2.33197 10.013604,-0.70664 1.309703,0.66114 3.163003,2.38336 3.845127,3.57317 l 0.492014,0.85821 0.275274,-0.42012 c 0.549489,-0.83862 0.857637,-2.03596 0.946491,-3.67766 0.157109,-2.9028 -0.639907,-5.04705 -2.674805,-7.196147 -0.976729,-1.031546 -1.521603,-1.436325 -2.703521,-2.008406 -0.814137,-0.394066 -1.414604,-0.778892 -1.334368,-0.85517 0.284557,-0.270523 2.015491,-0.681813 3.758499,-0.893062 5.99686,-0.726809 12.192918,2.276934 15.239775,7.387985 1.734439,2.90949 2.56818,6.55318 2.213575,9.67394 -0.09463,0.83278 -0.247096,1.65437 -0.33882,1.82576 -0.483033,0.90255 -3.466971,2.22195 -5.439832,2.40531 -3.690868,0.34303 -7.630618,-1.76686 -9.344534,-5.00436 -0.320983,-0.60632 -0.638483,-1.10235 -0.705555,-1.10228 -0.148301,1.4e-4 -1.326686,2.46039 -1.647402,3.43946 -0.353086,1.0779 -0.299026,4.03349 0.09518,5.20348 0.905219,2.68667 2.593848,4.72153 4.90534,5.91112 1.585489,0.81596 1.54865,0.8808 -0.708537,1.24721 -1.666977,0.2706 -3.089966,0.28891 -4.651424,0.0598 z"
         id="path4537"
         inkscape:connector-curvature="0" />
      <path
         style="fill:#159bf0;stroke-width:0.17638889"
         d="m 79.493379,125.78823 c -3.328417,-0.48825 -7.04999,-2.29268 -8.649731,-4.19386 -0.225025,-0.26743 -0.534231,-0.53423 -0.687126,-0.59291 -0.479888,-0.18415 -1.937186,-2.27703 -2.737011,-3.93072 -1.360332,-2.81258 -1.886807,-5.9202 -1.483868,-8.75881 l 0.211903,-1.49279 1.109756,-0.75256 c 3.049154,-2.06772 6.793835,-2.33197 10.013604,-0.70664 1.35004,0.6815 3.175689,2.39825 3.890064,3.65803 l 0.534778,0.94306 0.981501,-0.12263 c 4.746833,-0.59308 8.241279,-4.21031 8.609284,-8.91181 0.05974,-0.76322 0.01757,-1.730099 -0.09924,-2.274693 -0.111729,-0.520971 -0.164372,-0.98599 -0.116987,-1.033375 0.212503,-0.212503 3.246069,3.169888 4.045082,4.510218 1.734439,2.90949 2.56818,6.55318 2.213575,9.67394 -0.09463,0.83278 -0.247096,1.65437 -0.33882,1.82576 -0.483033,0.90255 -3.466971,2.22195 -5.439832,2.40531 -3.690868,0.34303 -7.630618,-1.76686 -9.344534,-5.00436 -0.320983,-0.60632 -0.638483,-1.10235 -0.705555,-1.10228 -0.148301,1.4e-4 -1.326686,2.46039 -1.647402,3.43946 -0.353086,1.0779 -0.299026,4.03349 0.09518,5.20348 0.905219,2.68667 2.593848,4.72153 4.90534,5.91112 1.585489,0.81596 1.54865,0.8808 -0.708537,1.24721 -1.666977,0.2706 -3.089966,0.28891 -4.651424,0.0598 z"
         id="path4535"
         inkscape:connector-curvature="0" />
      <path
         style="fill:#fd4e43;stroke-width:0.17638889"
         d="m 69.214762,120.02525 c -1.068446,-1.32961 -2.482758,-4.19604 -2.909937,-5.89766 -0.485634,-1.93445 -0.619894,-4.04945 -0.369182,-5.81566 l 0.211903,-1.49279 1.109756,-0.75256 c 3.049154,-2.06772 6.793835,-2.33197 10.013604,-0.70664 1.35004,0.6815 3.175689,2.39825 3.890064,3.65803 l 0.534778,0.94306 0.981501,-0.12263 c 4.746833,-0.59308 8.241279,-4.21031 8.609284,-8.91181 0.05974,-0.76322 0.01757,-1.730099 -0.09924,-2.274693 -0.111729,-0.520971 -0.164372,-0.98599 -0.116987,-1.033375 0.212503,-0.212503 3.246069,3.169888 4.045082,4.510218 1.734439,2.90949 2.56818,6.55318 2.213575,9.67394 -0.09463,0.83278 -0.247096,1.65437 -0.33882,1.82576 -0.483033,0.90255 -3.466971,2.22195 -5.439832,2.40531 -3.682706,0.34227 -7.630923,-1.76722 -9.335832,-4.98803 -0.556828,-1.05193 -0.601199,-1.08969 -1.411111,-1.20106 -0.459913,-0.0632 -1.373895,-0.0291 -2.031071,0.0759 -5.019198,0.80195 -8.418328,4.76873 -8.418328,9.8242 0,0.71208 -0.07294,1.2947 -0.162098,1.2947 -0.08915,0 -0.528854,-0.45641 -0.977113,-1.01424 z"
         id="path4533"
         inkscape:connector-curvature="0" />
      <path
         style="fill:#50ca27;stroke-width:0.17638889"
         d="m 69.214762,120.02525 c -1.068446,-1.32961 -2.482758,-4.19604 -2.909937,-5.89766 -0.485634,-1.93445 -0.619894,-4.04945 -0.369182,-5.81566 l 0.211903,-1.49279 1.109756,-0.75256 c 3.050605,-2.0687 6.793683,-2.33205 10.017297,-0.70477 1.31674,0.66469 3.258224,2.48522 3.891843,3.64939 l 0.457293,0.8402 -1.53384,0.003 c -5.485878,0.0123 -9.735922,4.32962 -9.735922,9.88994 0,0.71208 -0.07294,1.2947 -0.162098,1.2947 -0.08915,0 -0.528854,-0.45641 -0.977113,-1.01424 z"
         id="path4531"
         inkscape:connector-curvature="0" />
    </g>
  </g>
</svg>
